<svg width="33" height="33" viewBox="0 0 33 33" fill="none" xmlns="http://www.w3.org/2000/svg">
<path d="M8.71675 14.1031L5.53765 8.4081L8.60394 2.64413L14.8005 2.57567L17.9796 8.27065L14.9133 14.0346L8.71675 14.1031Z" fill="#F68C00" stroke="black"/>
<path d="M17.7706 14.0031L14.5915 8.30813L17.6578 2.54415L23.8543 2.4757L27.0334 8.17068L23.9671 13.9346L17.7706 14.0031Z" fill="#F68C00" stroke="black"/>
<path d="M17.9405 31.2668L14.7614 25.5718L17.8277 19.8078L24.0242 19.7394L27.2033 25.4343L24.1371 31.1983L17.9405 31.2668Z" fill="#F68C00" stroke="black"/>
<path d="M8.88667 31.3668L5.70758 25.6718L8.77386 19.9078L14.9704 19.8393L18.1495 25.5343L15.0832 31.2983L8.88667 31.3668Z" fill="#F68C00" stroke="black"/>
<path d="M4.27473 22.7849L1.09564 17.0899L4.16192 11.326L10.3585 11.2575L13.5376 16.9525L10.4713 22.7164L4.27473 22.7849Z" fill="#F68C00" stroke="black"/>
<path d="M22.3825 22.5848L19.2034 16.8898L22.2697 11.1258L28.4663 11.0574L31.6454 16.7523L28.5791 22.5163L22.3825 22.5848Z" fill="#F68C00" stroke="black"/>
<path d="M9.05056 16.7149L8.8969 17.0037L9.05621 17.2891L12.5127 23.4811L12.6863 23.792L13.0426 23.7881L19.833 23.7131L20.1893 23.7091L20.3567 23.3944L23.6906 17.1275L23.8442 16.8386L23.6849 16.5532L20.2284 10.3613L20.0548 10.0503L19.6985 10.0542L12.9081 10.1292L12.5518 10.1332L12.3844 10.4479L9.05056 16.7149Z" stroke="#F68C00" stroke-width="1.2"/>
<path d="M11.9907 15.1261L10.2794 11.9863L11.9907 8.84656H15.3643L17.0756 11.9863L15.3643 15.1261H11.9907Z" fill="#F68C00" stroke="black"/>
<path d="M17.2807 15.1261L15.5694 11.9863L17.2807 8.84656H20.6544L22.3656 11.9863L20.6544 15.1261H17.2807Z" fill="#F68C00" stroke="black"/>
<path d="M17.2807 25.213L15.5694 22.0733L17.2807 18.9335H20.6544L22.3656 22.0733L20.6544 25.213H17.2807Z" fill="#F68C00" stroke="black"/>
<path d="M11.9907 25.213L10.2794 22.0733L11.9907 18.9335H15.3643L17.0756 22.0733L15.3643 25.213H11.9907Z" fill="#F68C00" stroke="black"/>
<path d="M9.34563 20.1696L7.63438 17.0298L9.34563 13.89H12.7193L14.4306 17.0298L12.7193 20.1696H9.34563Z" fill="#F68C00" stroke="black"/>
<path d="M19.9257 20.1696L18.2145 17.0298L19.9257 13.89H23.2994L25.0106 17.0298L23.2994 20.1696H19.9257Z" fill="#F68C00" stroke="black"/>
<path d="M11.8281 16.7427L11.6717 17.0298L11.8281 17.3169L13.8119 20.9567L13.9824 21.2696H14.3387H18.3063H18.6626L18.8331 20.9567L20.8169 17.3169L20.9734 17.0298L20.8169 16.7427L18.8331 13.1029L18.6626 12.79H18.3063H14.3387H13.9824L13.8119 13.1029L11.8281 16.7427Z" stroke="#F68C00" stroke-width="1.2"/>
<path d="M9.02402 31.3981C9.02402 31.1491 8.90243 30.025 9.25896 30.025C9.4808 30.025 9.67664 30.1633 9.90301 30.0851C10.1889 29.9863 10.37 29.6977 10.6443 29.5744C10.9874 29.4202 10.96 29.5199 11.1223 29.0638C11.2384 28.7373 11.3105 28.4236 11.3572 28.0769" stroke="black" stroke-linecap="square"/>
<path d="M4.13892 11.6255C4.16108 12.2007 4.59804 12.3875 4.78702 12.9213C4.96506 13.4243 5.24993 13.8993 5.45133 14.406" stroke="black" stroke-linecap="square"/>
<path d="M4.50353 13.3247C4.09397 13.7454 4.07321 14.1497 4.10656 14.7622C4.12562 15.1121 4.31125 15.5312 4.27669 15.8606C4.23029 16.3031 4.03215 16.8401 4.26049 17.2295C4.45732 17.5651 4.45817 18.2438 4.79518 18.4223" stroke="black" stroke-linecap="square"/>
<path d="M5.30554 13.8654C5.55865 14.1603 5.76429 14.3008 6.12378 14.4446C6.47538 14.5853 6.3001 15.1209 6.70707 14.981C7.20124 14.8111 7.93886 14.4994 8.14911 13.9426" stroke="black" stroke-linecap="square"/>
<path d="M12.5237 2.58881C12.3768 3.2116 11.9458 3.55212 11.4868 3.94903C11.2619 4.1435 11.219 4.172 11.0574 3.95332C10.842 3.66181 10.5791 4.24918 10.4741 4.39958C10.3308 4.60485 10.2818 4.53689 10.069 4.53689C9.70294 4.53689 9.46111 4.8223 9.26296 5.11616C9.13782 5.30174 9.13798 5.53971 9.06853 5.75122C8.92591 6.18556 8.69806 6.55052 8.44067 6.91406" stroke="black" stroke-linecap="square"/>
<path d="M10.8468 3.90179C10.9798 4.166 11.1041 4.39861 11.1222 4.69991C11.1342 4.89911 11.6574 4.88938 11.8028 4.96165C12.1097 5.11425 12.343 5.51223 12.5967 5.7426C12.7278 5.86168 13.1071 6.0665 13.1071 6.29613" stroke="black" stroke-linecap="square"/>
<path d="M28.4185 11.162C27.9281 12.0528 27.1855 11.1472 26.6038 11.6941C26.1747 12.0976 26.0212 12.2455 25.4332 12.1361C25.1394 12.0814 24.9123 12.0253 24.7729 12.3206" stroke="black" stroke-linecap="square"/>
<path d="M26.45 12.2434C26.1076 12.324 26.8225 12.7561 26.8591 12.7884C27.1778 13.0697 26.9968 13.1617 26.774 13.3977C26.5171 13.6699 27.0293 13.7593 27.167 13.9083C27.4236 14.186 27.2679 14.4671 27.2439 14.7922C27.2187 15.1342 27.4751 15.1991 27.5518 15.4874C27.6228 15.7545 27.4744 15.9187 27.6652 16.1739C27.8485 16.419 28.113 16.6108 28.3457 16.8004" stroke="black" stroke-linecap="square"/>
<path d="M24.5542 22.5931C24.5542 21.3906 25.7555 21.5781 26.3689 20.7695C26.7228 20.303 27.2083 19.9051 27.4707 19.3492" stroke="black" stroke-linecap="square"/>
<path d="M25.3563 27.9225C25.2243 27.9225 25.1631 27.8474 25.0484 27.768C24.5117 27.3963 24.097 27.2968 23.7806 27.9868C23.5713 28.4431 23.7176 28.3888 23.3269 28.3129C22.8869 28.2275 22.3716 28.5649 22.0023 28.7721" stroke="black" stroke-linecap="square"/>
<path d="M24.1897 27.2274C24.1774 26.9103 24.1544 26.6093 24.0803 26.3005C24.0172 26.0377 24.0037 25.9423 23.9628 26.2018C23.9396 26.3495 23.7183 26.0403 23.6307 25.9229C23.2614 25.428 22.8889 24.936 22.5127 24.4468" stroke="black" stroke-linecap="square"/>
<path d="M25.4292 27.9997C25.599 27.9997 25.7126 28.0225 25.8667 28.0769" stroke="black" stroke-linecap="square"/>
<path d="M21.1274 2.66602C21.1319 2.94502 21.0537 3.70298 21.3623 3.84602C21.5179 3.91811 21.6693 3.74616 21.8241 3.77308C22.0459 3.81165 22.0245 4.17627 22.0266 4.3309C22.0286 4.47454 22.0034 4.73007 22.0307 4.88014C22.0793 5.14804 22.245 5.30553 22.2292 5.60101C22.2102 5.95546 21.8372 6.46635 21.9294 6.75956" stroke="black" stroke-linecap="square"/>
<path d="M22.2211 4.67419C22.269 4.77581 22.4424 4.76347 22.5289 4.80292C22.7573 4.90709 22.8652 5.10144 22.8611 5.36074C22.8558 5.69172 23.6118 5.47481 23.8899 5.56242C24.2816 5.68575 24.4746 5.59778 24.7325 5.90998C24.8706 6.07718 24.7803 6.28264 24.9917 6.45064" stroke="black" stroke-linecap="square"/>
</svg>
